<?xml version="1.0" encoding="iso-8859-1"?>
<!-- Generator: Adobe Illustrator 19.0.0, SVG Export Plug-In . SVG Version: 6.00 Build 0)  -->
<svg version="1.1" id="Capa_1" xmlns="http://www.w3.org/2000/svg" xmlns:xlink="http://www.w3.org/1999/xlink" x="0px" y="0px"
	 viewBox="0 0 512 512" style="enable-background:new 0 0 512 512;" xml:space="preserve">
<path style="fill:#E7ECED;" d="M370.759,494.345H141.241c-9.754,0-17.655-7.901-17.655-17.655l0,0
	c0-9.754,7.901-17.655,17.655-17.655h229.517c9.754,0,17.655,7.901,17.655,17.655l0,0
	C388.414,486.444,380.513,494.345,370.759,494.345z"/>
<path style="fill:#AFB6BB;" d="M300.138,379.586h-88.276c0,39.036-13.93,79.448-52.966,79.448h194.207
	C314.068,459.034,300.138,418.622,300.138,379.586z"/>
<path style="fill:#28384C;" d="M441.379,17.655H70.621H26.492C11.864,17.655,0,29.519,0,44.147v273.646h70.621h132.414h105.931
	h132.414H512V44.147c0-14.627-11.864-26.492-26.492-26.492H441.379z"/>
<path style="fill:#E7ECED;" d="M485.508,388.414H26.492C11.864,388.414,0,376.549,0,361.922v-44.129h512v44.129
	C512,376.549,500.136,388.414,485.508,388.414z"/>
<path style="fill:#AFB6BB;" d="M282.483,361.931h-52.966c-4.873,0-8.828-3.955-8.828-8.828c0-4.873,3.955-8.828,8.828-8.828h52.966
	c4.873,0,8.828,3.955,8.828,8.828C291.31,357.976,287.356,361.931,282.483,361.931z"/>
<rect x="300.138" y="114.759" style="fill:#23A24D;" width="176.552" height="123.586"/>
<circle style="fill:#177233;" cx="388.414" cy="176.552" r="26.483"/>
<g>
	<path style="fill:#FFFFFF;" d="M176.552,256H35.31c-4.873,0-8.828-3.955-8.828-8.828V220.69c0-4.873,3.955-8.828,8.828-8.828
		h141.241c4.873,0,8.828,3.955,8.828,8.828v26.483C185.379,252.045,181.425,256,176.552,256z M44.138,238.345h123.586v-8.828H44.138
		V238.345z"/>
	<path style="fill:#FFFFFF;" d="M176.552,150.069H35.31c-3.937,0-7.398-2.604-8.483-6.391c-1.086-3.787,0.468-7.83,3.814-9.922
		l70.621-44.138c2.86-1.783,6.488-1.783,9.357,0l70.621,44.138c3.337,2.092,4.899,6.135,3.814,9.922
		C183.949,147.465,180.489,150.069,176.552,150.069z M66.092,132.414h79.678l-39.839-24.903L66.092,132.414z"/>
	<path style="fill:#FFFFFF;" d="M52.966,229.517c-4.873,0-8.828-3.955-8.828-8.828v-79.448c0-4.873,3.955-8.828,8.828-8.828
		s8.828,3.955,8.828,8.828v79.448C61.793,225.562,57.838,229.517,52.966,229.517z"/>
	<path style="fill:#FFFFFF;" d="M158.897,229.517c-4.873,0-8.828-3.955-8.828-8.828v-79.448c0-4.873,3.955-8.828,8.828-8.828
		c4.873,0,8.828,3.955,8.828,8.828v79.448C167.724,225.562,163.769,229.517,158.897,229.517z"/>
	<path style="fill:#FFFFFF;" d="M123.586,229.517c-4.873,0-8.828-3.955-8.828-8.828v-79.448c0-4.873,3.955-8.828,8.828-8.828
		s8.828,3.955,8.828,8.828v79.448C132.414,225.562,128.459,229.517,123.586,229.517z"/>
	<path style="fill:#FFFFFF;" d="M88.276,229.517c-4.873,0-8.828-3.955-8.828-8.828v-79.448c0-4.873,3.955-8.828,8.828-8.828
		c4.873,0,8.828,3.955,8.828,8.828v79.448C97.103,225.562,93.149,229.517,88.276,229.517z"/>
</g>
<g>
	<path style="fill:#177233;" d="M476.69,158.897L476.69,158.897c-24.373,0-44.138-19.765-44.138-44.138l0,0h44.138V158.897z"/>
	<path style="fill:#177233;" d="M432.552,238.345L432.552,238.345c0-24.373,19.765-44.138,44.138-44.138l0,0v44.138H432.552z"/>
	<path style="fill:#177233;" d="M300.138,194.207L300.138,194.207c24.373,0,44.138,19.765,44.138,44.138l0,0h-44.138V194.207z"/>
	<path style="fill:#177233;" d="M344.276,114.759L344.276,114.759c0,24.373-19.765,44.138-44.138,44.138l0,0v-44.138H344.276z"/>
</g>
<g>
	<path style="fill:#366DB6;" d="M264.828,185.379h-61.793c-4.873,0-8.828-3.955-8.828-8.828c0-4.873,3.955-8.828,8.828-8.828h61.793
		c4.873,0,8.828,3.955,8.828,8.828C273.655,181.425,269.7,185.379,264.828,185.379z"/>
	<path style="fill:#366DB6;" d="M264.828,185.379c-2.26,0-4.52-0.865-6.241-2.586l-26.483-26.483c-3.452-3.452-3.452-9.031,0-12.482
		c3.452-3.452,9.031-3.452,12.482,0l26.483,26.483c3.452,3.452,3.452,9.031,0,12.482
		C269.347,184.514,267.087,185.379,264.828,185.379z"/>
	<path style="fill:#366DB6;" d="M238.345,211.862c-2.26,0-4.52-0.865-6.241-2.586c-3.452-3.452-3.452-9.031,0-12.482l26.483-26.483
		c3.452-3.452,9.031-3.452,12.482,0c3.452,3.452,3.452,9.031,0,12.482l-26.483,26.483
		C242.865,210.997,240.605,211.862,238.345,211.862z"/>
</g>
<g>
</g>
<g>
</g>
<g>
</g>
<g>
</g>
<g>
</g>
<g>
</g>
<g>
</g>
<g>
</g>
<g>
</g>
<g>
</g>
<g>
</g>
<g>
</g>
<g>
</g>
<g>
</g>
<g>
</g>
</svg>
